<svg version="1.0" xmlns="http://www.w3.org/2000/svg" width="400px" height="312px" viewBox="0 0 400 312" preserveAspectRatio="xMidYMid meet">
 <g fill="#ffffff">
  <path d="M171.2 287.8 c-1.7 -1.7 -1.6 -3.6 1.2 -17.8 1.4 -6.9 3.2 -16.8 4.1 -22 0.8 -5.2 3.1 -18 5.1 -28.5 5 -26.7 5.2 -27.8 7.5 -39 2.2 -10.9 6.5 -34.8 7.9 -43.5 0.5 -3 2 -11.3 3.4 -18.5 1.5 -7.1 3.7 -19.1 5 -26.5 2.3 -12.4 4.3 -23.1 11.2 -58.5 1.4 -7.1 3 -13.5 3.6 -14.2 1.2 -1.5 11.5 -1.8 13.7 -0.4 1.2 0.8 1.3 2.3 0.2 9.8 -0.7 4.8 -1.6 10.8 -2.1 13.3 -0.5 2.5 -2 10.8 -3.4 18.5 -1.4 7.7 -4.8 26.2 -7.6 41 -8.3 43.7 -11.7 62.1 -14.5 77.5 -2.8 15.8 -3.5 19.2 -6.6 35 -2.9 14.1 -5.4 27.8 -7.8 42.5 -4.4 26.4 -5.5 30.1 -9.4 31.5 -4 1.4 -10 1.3 -11.5 -0.2z"/>
  <path d="M120 219.2 c-0.8 -0.2 -8.2 -4.3 -16.4 -9 -8.2 -4.6 -16.8 -9.4 -19 -10.6 -43.7 -23.6 -49.5 -27.2 -51.2 -31.3 -0.9 -2.1 -1.4 -7.3 -1.4 -15.1 0 -14.2 1.1 -16.6 10 -21.4 3 -1.7 9.6 -5.4 14.6 -8.3 14.2 -8.4 19.3 -11.2 27.9 -15.7 4.4 -2.2 9.8 -5.3 12 -6.7 6.1 -4.1 24 -14.1 25.2 -14.1 0.6 0 1.4 0.7 1.7 1.6 0.7 1.8 -2 13.3 -3.7 15.2 -1.4 1.7 -21.4 14.9 -31.8 21 -31.2 18.2 -37.5 23.5 -36.1 30.9 0.7 3.6 7.5 10.2 14.2 13.7 3 1.6 9.1 5.3 13.5 8.1 4.4 2.9 11.1 7 14.9 9.1 3.7 2.1 7.6 4.4 8.5 4.9 0.9 0.6 4.7 2.8 8.4 4.9 8.1 4.6 9.5 6.5 11 15 1.1 6.8 0.6 8.8 -2.3 7.8z"/>
  <path d="M283 218.1 c-1.3 -2.5 2.1 -14.6 4.8 -17.2 2.1 -1.9 12.8 -8.3 27.2 -16.4 4.1 -2.3 10.2 -6 13.5 -8.2 3.3 -2.2 8.5 -5.3 11.5 -6.9 6.7 -3.5 13.5 -10.1 14.2 -13.7 0.3 -1.4 -0.2 -4 -1 -5.7 -2.5 -5.2 -8.1 -9.3 -34.2 -24.8 -11 -6.6 -29.2 -18.3 -31.6 -20.5 -1.3 -1.1 -2.9 -4.5 -3.8 -8.2 -1.6 -6.4 -1.4 -9.5 0.8 -9.5 0.6 0 6.3 3 12.6 6.7 6.3 3.6 15.3 8.7 20 11.3 4.7 2.6 13.5 7.5 19.5 11 6.1 3.5 16.1 9.2 22.3 12.8 14.8 8.4 15.2 9 15.2 24.5 0 16.3 -0.4 17 -12.8 24.3 -9.5 5.6 -31.6 17.9 -42 23.4 -6.9 3.6 -17.9 9.8 -24.2 13.6 -8.6 5.1 -10.8 5.7 -12 3.5z"/>
 </g>
</svg>